<?xml version="1.0" encoding="UTF-8" standalone="no"?>
<svg
   xmlns:dc="http://purl.org/dc/elements/1.1/"
   xmlns:cc="http://creativecommons.org/ns#"
   xmlns:rdf="http://www.w3.org/1999/02/22-rdf-syntax-ns#"
   xmlns:svg="http://www.w3.org/2000/svg"
   xmlns="http://www.w3.org/2000/svg"
   xmlns:sodipodi="http://sodipodi.sourceforge.net/DTD/sodipodi-0.dtd"
   xmlns:inkscape="http://www.inkscape.org/namespaces/inkscape"
   width="100"
   height="100"
   viewBox="0 0 80 80"
   version="1.1"
   id="svg2"
   inkscape:version="0.48.4 r9939"
   sodipodi:docname="argonaut_logo.svg">
  <metadata
     id="metadata10">
    <rdf:RDF>
      <cc:Work
         rdf:about="">
        <dc:format>image/svg+xml</dc:format>
        <dc:type
           rdf:resource="http://purl.org/dc/dcmitype/StillImage" />
        <dc:title />
      </cc:Work>
    </rdf:RDF>
  </metadata>
  <defs
     id="defs8" />
  <sodipodi:namedview
     pagecolor="#ffffff"
     bordercolor="#666666"
     borderopacity="1"
     objecttolerance="10"
     gridtolerance="10"
     guidetolerance="10"
     inkscape:pageopacity="0"
     inkscape:pageshadow="2"
     inkscape:window-width="1680"
     inkscape:window-height="987"
     id="namedview6"
     showgrid="false"
     inkscape:zoom="1.827871"
     inkscape:cx="50"
     inkscape:cy="46.751621"
     inkscape:window-x="-4"
     inkscape:window-y="-4"
     inkscape:window-maximized="1"
     inkscape:current-layer="svg2" />
  <path
     style="fill:#000000;fill-opacity:1;stroke:none"
     d="m 33.374665,74.210991 -17.975,-17.925 0,-23.075 -11.3000003,0 c -1.47797,0 -2.675,-1.19716 -2.675,-2.675 l 0,-6.2 c 0,-1.3554 0.99396,-2.44975 2.3,-2.625 l 0,-2.325 c 0,-0.63872 0.51127,-1.175 1.15,-1.175 0.63873,0 1.175,0.53628 1.175,1.175 l 0,2.3 9.2250003,0 0,-17.2999998 2.3,0 0,17.2999998 1.15,0 0,-14.9999998 2.3,0 0,14.9999998 1.15,0 0,-17.2999998 2.3,0 0,17.2999998 1.175,0 0,-17.2999998 2.3,0 0,17.2999998 1.15,0 0,-14.9999998 2.3,0 0,14.9999998 1.15,0 0,-14.9999998 2.325,0 0,14.9999998 1.15,0 0,-17.2999998 2.3,0 0,17.2999998 1.15,0 0,-16.1499998 2.3,0 0,16.1499998 1.15,0 0,-13.8499998 2.325,0 0,13.8499998 1.15,0 0,-14.9999998 2.3,0 0,14.9999998 1.15,0 0,-14.9999998 2.3,0 0,14.9999998 1.15,0 0,-14.9999998 2.325,0 0,14.9999998 1.15,0 0,-13.8499998 2.3,0 0,13.8499998 1.15,0 0,-16.1499998 2.3,0 0,16.1499998 1.15,0 0,-14.9999998 2.325,0 0,14.9999998 9.225,0 0,-2.3 c 0,-0.63872 0.51127,-1.175 1.15,-1.175 0.638729,0 1.15,0.53628 1.15,1.175 l 0,2.325 c 1.30604,0.17525 2.3,1.2696 2.3,2.625 l 0,6.2 c 0,1.477609 -1.19703,2.675 -2.675,2.675 l -11.3,0 0,41 -32.475,0 z m 4.1,-4.425 23.975,0 0,-36.575 -6.3,0 0,3.15 -29.025,0 0,-3.15 -6.325,0 0,18.925 17.675,0 0,17.65 z m -4.4,-1.675 0,-11.55 -11.7,0 11.7,11.55 z m 10.7,-2.725 0,-4.425 11.375,0 0,4.425 -11.375,0 z m 0,-8.825 0,-4.425 11.375,0 0,4.425 -11.375,0 z m -17.65,-11.375 0,-4.4 29.025,0 0,4.4 -29.025,0 z m 36.4,-15.425 c 1.273509,0 2.325,-1.05146 2.325,-2.325 0,-1.273531 -1.051491,-2.3 -2.325,-2.3 -1.2735,0 -2.3,1.026469 -2.3,2.3 0,1.27354 1.0265,2.325 2.3,2.325 z m 5.775,0 c 1.2735,0 2.3,-1.05146 2.3,-2.325 0,-1.273531 -1.0265,-2.3 -2.3,-2.3 -1.27351,0 -2.3,1.026469 -2.3,2.3 0,1.27354 1.02649,2.325 2.3,2.325 z m 5.775,0 c 1.273509,0 2.3,-1.05146 2.3,-2.325 0,-1.273531 -1.026491,-2.3 -2.3,-2.3 -1.2735,0 -2.325,1.026469 -2.325,2.3 0,1.27354 1.0515,2.325 2.325,2.325 z"
     id="rect6870"
     inkscape:connector-curvature="0" />
  <g
     id="g7046"
     transform="matrix(0.63080771,0,0,-0.63080771,9.9635407,70.905769)"
     style="fill:#000000">
    <g
       id="g7020"
       style="fill:#000000" />
    <g
       id="g7024"
       style="fill:#000000" />
    <g
       id="g7028"
       style="fill:#000000" />
    <g
       id="g7032"
       style="fill:#000000" />
    <g
       id="g7036"
       style="fill:#000000" />
  </g>
  <path
     inkscape:connector-curvature="0"
     style="fill:#000000;fill-opacity:1;stroke:none"
     d="m 64.561801,23.507199 c 0,-0.63688 -0.51619,-1.15294 -1.15294,-1.15294 -0.63675,0 -1.15294,0.51606 -1.15294,1.15294 0,0.63689 0.51619,1.15295 1.15294,1.15295 0.63675,0 1.15294,-0.51606 1.15294,-1.15295 z"
     id="path7113" />
  <path
     inkscape:connector-curvature="0"
     style="fill:#000000;fill-opacity:1;stroke:none"
     d="m 70.326511,23.507199 c 0,-0.63688 -0.51619,-1.15294 -1.15294,-1.15294 -0.63675,0 -1.15294,0.51606 -1.15294,1.15294 0,0.63689 0.51619,1.15295 1.15294,1.15295 0.63675,0 1.15294,-0.51606 1.15294,-1.15295 z"
     id="path7115" />
  <path
     inkscape:connector-curvature="0"
     style="fill:#000000;fill-opacity:1;stroke:none"
     d="m 76.091221,23.507199 c 0,-0.63688 -0.51619,-1.15294 -1.15295,-1.15294 -0.63675,0 -1.15294,0.51606 -1.15294,1.15294 0,0.63689 0.51619,1.15295 1.15294,1.15295 0.63676,0 1.15295,-0.51606 1.15295,-1.15295 z"
     id="path7117" />
</svg>
